<svg viewBox="0 0 200 160" xmlns="http://www.w3.org/2000/svg" xmlns:xlink="http://www.w3.org/1999/xlink"><title>2</title><defs><path id="a" d="M11.118.168c-.193.002-.394.018-.602.045-1.986.437-4.12 3.304-3.97 5.23.058.73.235 1.466.095 2.183-.483 2.463-3.573 3.378-3.396 5.884.063.905.688 1.67.87 2.558.36 1.787-1.092 3.35-2.317 4.67C.89 21.712.012 23.05 0 24.307v.054c.004.42.106.832.337 1.217.74 1.235 2.378 1.42 3.785 1.46 4.207.125 8.67.154 12.88.092 1.12-.018 2.282-.052 3.278-.58.848-.45 1.528-1.373 1.532-2.325 0-.166-.02-.333-.063-.5-.307-1.177-.798-1.75-1.862-2.28-1.064-.53-2.224-1.442-2.086-2.654.054-.48.313-.906.557-1.318.65-1.094 1.01-2.273 1.088-3.556.08-1.283-.508-2.692-1.662-3.174-.424-.177-.9-.223-1.294-.463-1.328-.81-1.54-2.848-1.453-4.435.168-3.07-1.105-5.648-3.818-5.68h-.104z"/><path id="c" d="M.495 2.387C.922 8.03.8 13.643.04 19.25c-.314 2.307 2.96 3.303 3.276.973.805-5.944 1.03-11.846.576-17.836-.09-1.17-.987-1.76-1.836-1.76-.848 0-1.65.586-1.56 1.76z"/></defs><g fill="none" fill-rule="evenodd"><path d="M104.242 120.897c-18.563-1.147-37.736.517-54.58 4.736-2.776.695-5.94 2.3-4.13 3.596.74.53 2.063.723 3.286.877 16.484 2.07 33.475 3.042 50.43 2.88 2.657-.024 5.673-.002 7.47 1.018 1.393.792 1.666 2.007 3.15 2.754 1.63.818 4.165.825 6.43.78l15.096-.296c4-.08 8.3-.213 11.43-1.51 3.13-1.297 3.99-4.216.61-5.333-2.52-.833-7.187-1.015-6.607-2.54 5.347-.578 10.656-1.25 15.915-2.02 1.375-.2 2.823-.432 3.77-.987 1.725-1.01.958-2.71-.954-3.623-1.912-.915-4.585-1.235-7.143-1.47-13.056-1.192-26.565-1.027-39.498.486" fill="#1A9F49"/><path d="M132.593 119.074c1.086 4.732-13.35 5.583-29.02 6.618-17.92 1.183-37.574 2.097-39.588.547-1.81-1.395-1.526-29.482-1.777-53.413-.18-17.198-3.71-33.203.927-33.945 3.103-.496 57.317-5.38 61.344-1.855 1.59 1.394-.616 7.162 1.35 27.82 2.227 23.376 4.287 43.44 6.763 54.227" fill="#64D2FF"/><g transform="translate(47.918 86.627)"><mask id="b" fill="#fff"><use xlink:href="#a"/></mask><path fill="#7AC15E" mask="url(#b)" d="M-4.53 32.05h30.872V-4.72H-4.53"/></g><g transform="translate(56.752 105.198)"><mask id="d" fill="#fff"><use xlink:href="#c"/></mask><path fill="#7AC15E" mask="url(#d)" d="M-4.51 26.438H8.653V-4.26H-4.51"/></g><path fill="#5974B7" d="M83.497 59.47l-8.073-.11-.437-7.527 7.855-.545M99.523 59.546l-8.074-.11-.437-7.527 7.855-.547"/><path fill="#E66364" d="M95.31 45.448L91.31 45.2l-.216-17.094 3.89-1.238"/><path fill="#E66364" d="M84.867 39.25l.01-4.106 16.63-1.21 1.43 3.91"/><path fill="#5974B7" d="M114.28 57.917l-8.075-.11-.436-7.526 7.854-.545"/><path fill="#A680D6" d="M82.177 77.44l-8.074-.11-.437-7.528 7.855-.545"/><path fill="#5974B7" d="M100.158 77.44l-8.074-.11-.436-7.528 7.855-.545"/><path fill="#A680D6" d="M116.265 76.668l-8.073-.11-.437-7.526 7.855-.545"/><path fill="#5974B7" d="M83.497 95.31l-8.073-.11-.437-7.527 7.855-.546M101.592 93.68l-8.074-.108-.436-7.528 7.855-.545"/><path fill="#A680D6" d="M118.534 93.68l-8.074-.108-.436-7.528 7.855-.545"/><path fill="#5974B7" d="M83.944 113.814l-8.073-.11-.436-7.527 7.855-.545"/><path d="M105.615 127.51l-12.85-.34c-.45-.012-.81-.372-.824-.82l-.74-25.01c-.013-.432.303-.805.732-.863l12.485-.57c.494-.067.94.306.96.805l1.106 25.917c.02.488-.38.892-.868.88" fill="#FFC333"/><path fill="#5974B7" d="M118.958 113.108l-8.074-.11-.437-7.527 7.855-.544"/><path d="M120.156 30.068c-.082.047-.183.06-.28.03-.184-.058-.286-.254-.228-.438l2.245-7.118c.058-.184.254-.286.438-.228.185.058.287.255.23.44l-2.246 7.117c-.027.087-.085.156-.158.198zM137.138 49.703c-.033 0-.067-.005-.1-.015l-8.246-2.458c-.185-.055-.29-.25-.235-.435.055-.185.25-.29.434-.235l8.248 2.46c.185.054.29.248.235.433-.046.152-.185.25-.335.25M129.286 38.578c-.187 0-.342-.148-.35-.337-.006-.19.144-.353.337-.36l7.125-.263c.19-.005.355.144.362.337.007.193-.143.355-.336.362l-7.125.262h-.014M125.786 31.648c-.127.01-.255-.048-.327-.163-.103-.163-.054-.38.11-.48l6.147-3.848c.163-.102.38-.053.48.11.103.164.054.38-.11.482l-6.147 3.846c-.048.03-.1.047-.154.052z" fill="#FCC234" stroke="#FCC234"/></g></svg>