<svg id="Layer_1" data-name="Layer 1" xmlns="http://www.w3.org/2000/svg" viewBox="0 0 82.6 70"><defs><style>.cls-1{fill:#87eecb;}.cls-2{fill:#fff;}.cls-3{fill:#ffd588;}.cls-4{fill:#c9754f;}.cls-5{fill:#ed6767;}.cls-6{fill:#dae2e3;}.cls-7{fill:#ededef;}.cls-8{fill:#ffc333;}</style></defs><title>Artboard 1</title><path class="cls-1" d="M24.4,37.3c-4.6,1.8-9.6,2.6-13.7,5.3S3.7,50.8,6.1,55c1.5,2.7,4.7,4,7.6,5.1,4.1,1.5,8.2,3.1,12.4,4.6,3,1.1,6.2,2.3,9.3,1.7,1.5-.3,3-.9,4.6-1.1,4.2-.5,8.1,2.2,12.3,2.4,5.1.2,9.5-3.5,12.4-7.7,2.5-3.6,4.3-8,3.2-12.3-.8-3.3-3.2-5.9-5.8-8.1a41.89,41.89,0,0,0-19.8-9.4,22.33,22.33,0,0,0-10.9.3c-3.5,1.1-6.7,3.6-7.9,7.1"/><path class="cls-2" d="M55,48.3a45.23,45.23,0,0,0-.8-6.3c-.6-3-1.5-6-3.4-8.2A10.49,10.49,0,0,0,42,30.6c-.2,0-.6,2.2-2.1,3.6,0-.1-.1-.2-.1-.4v-.1a27.13,27.13,0,0,1-.9-4.1,4.12,4.12,0,0,0,1.3-1,5.19,5.19,0,0,0,1.1-2.9h0a6.44,6.44,0,0,0,.5,2.4,2.82,2.82,0,0,0,2,1.5,8.53,8.53,0,0,0,1.6,0c.5-.1,1-.1,1.5-.2a5.89,5.89,0,0,0,2.6-1,4,4,0,0,0,1.2-2.7,16.05,16.05,0,0,0,0-3.1c-.1-1-.2-2.1-.4-3.1A23.86,23.86,0,0,0,44.9,8.6a20.88,20.88,0,0,0-4.8-4.1,9,9,0,0,0-6.4-1.4,8.37,8.37,0,0,0-2.9,1.3,10.61,10.61,0,0,0-2,1.7,7.81,7.81,0,0,0-1.1,2,16.65,16.65,0,0,0-.8,3.2,19.82,19.82,0,0,1-.8,3.5c-.8,2-2.4,3.4-3.7,5.2a8.06,8.06,0,0,0-1.6,5.8,5.75,5.75,0,0,0,3,4.5,4.78,4.78,0,0,0,4.9,0,5.52,5.52,0,0,0,2.2-3,4.56,4.56,0,0,0,1.2,1.2,6.91,6.91,0,0,0,2.5,1c-.1,0-.2,0-.3.2s0,.3-.1.5c-.1,1.2-.3,2.3-.5,3.5a.37.37,0,0,1-.1.3,6.29,6.29,0,0,1-2-1.3c-1.5.5-3.1,1.1-4.6,1.6-2.1.7-4.4,1.6-5.6,3.7a11.68,11.68,0,0,0-1.3,4.6,111.67,111.67,0,0,0-.8,12.9c0,3,.3,6.3,2.2,8.4s4.9,2.3,7.6,2.3c4.3,0,8.6.1,12.9.1a29.78,29.78,0,0,0,6-.4,24.09,24.09,0,0,0,5.4-2.1,2.29,2.29,0,0,0,1-.7,3.46,3.46,0,0,0,.5-2.1c.1-3.4.2-6.8.1-10.2"/><path class="cls-3" d="M29,15.2a24.91,24.91,0,0,0-.1,6.1c.3,2.7,1.1,5.6,3.4,7.5s6.2,2.1,8,0c1.2-1.4,1.2-3.3,1.2-5.1V19.5a9.63,9.63,0,0,0-.4-3.4c-.9-2.3-3.5-3.7-5.9-4.9-1.6-.8-3.2-1.6-4.8-2.3-.3-.1-.6-.3-.9-.2-.5.2-.6.8-.6,1.3.1,2.3.2,4.6.4,6.9"/><path class="cls-4" d="M30.9,4.6C28.7,6,28.1,7.3,27.4,9.8a40.33,40.33,0,0,1-1.1,5c-1,2.5-3.3,4.3-4.5,6.7a7.27,7.27,0,0,0,.2,7.4c1.5,2.1,4.6,3.1,6.8,1.8,3-1.7,3-6,2.3-9.3s-1.5-7.3.7-9.9a4.33,4.33,0,0,1,3,2.3c.6,1.1,1,2.4,1.7,3.5,1.4,2.3,4,3.9,4.7,6.5.5,2-.1,4.7,1.7,5.8a4.7,4.7,0,0,0,2.9.3c1.5-.2,3.2-.4,4.1-1.6a5.2,5.2,0,0,0,.9-3.2A23.32,23.32,0,0,0,41.4,5.8,9.47,9.47,0,0,0,36,3.2a7.24,7.24,0,0,0-5.1,1.4"/><path class="cls-4" d="M30.9,4.6a10.61,10.61,0,0,0-2,1.7,7.81,7.81,0,0,0-1.1,2,16.65,16.65,0,0,0-.8,3.2,19.82,19.82,0,0,1-.8,3.5c-.8,2-2.4,3.4-3.7,5.2A8.06,8.06,0,0,0,20.9,26a5.75,5.75,0,0,0,3,4.5,4.78,4.78,0,0,0,4.9,0,5.79,5.79,0,0,0,2.5-4.1,16.35,16.35,0,0,0-.2-5.4,22.46,22.46,0,0,1-.6-6.3,6.3,6.3,0,0,1,1-2.9c.1-.1.1-.2.2-.3s.1-.2.3-.2h.2c.3.1.5.2.8.3a4,4,0,0,1,1.2,1,12.83,12.83,0,0,1,1.7,3,9.48,9.48,0,0,0,1.7,2.7c1.3,1.5,2.9,2.8,3.6,4.7a9,9,0,0,1,.4,2.8,6.44,6.44,0,0,0,.5,2.4,2.82,2.82,0,0,0,2,1.5,8.53,8.53,0,0,0,1.6,0c.5-.1,1-.1,1.5-.2a5.89,5.89,0,0,0,2.6-1A4,4,0,0,0,51,25.8a16.05,16.05,0,0,0,0-3.1c-.1-1-.2-2.1-.4-3.1A23.86,23.86,0,0,0,45.2,8.7a20.88,20.88,0,0,0-4.8-4.1A9,9,0,0,0,34,3.2a8.1,8.1,0,0,0-3.1,1.4c-.1,0,0,.1,0,0a7.89,7.89,0,0,1,6.5-1.1A14.1,14.1,0,0,1,43,6.9a22.32,22.32,0,0,1,6.6,10.2,24.42,24.42,0,0,1,1.1,6,11.33,11.33,0,0,1-.1,3.2A3.78,3.78,0,0,1,49,28.9a7.4,7.4,0,0,1-2.9.8,5.78,5.78,0,0,1-3.2-.2c-1.6-.9-1.4-3.2-1.6-4.8a5.66,5.66,0,0,0-.8-2.5A18.39,18.39,0,0,0,38.8,20a13,13,0,0,1-1.9-2.2,16.41,16.41,0,0,1-1.6-2.9,6.54,6.54,0,0,0-1.7-2.6,2.4,2.4,0,0,0-1.2-.7c-.2-.1-.4-.1-.6-.2s-.3.2-.4.4a8.11,8.11,0,0,0-1.1,5.5c.2,2,.7,3.9.9,5.8a10.51,10.51,0,0,1-.6,5.3,4.49,4.49,0,0,1-4.1,2.8,5.27,5.27,0,0,1-4.7-2.5,7.4,7.4,0,0,1-.6-6c.7-2,2.1-3.5,3.4-5.2a14,14,0,0,0,1.6-2.6,20.92,20.92,0,0,0,.8-3.4,17.68,17.68,0,0,1,.8-3.1,7,7,0,0,1,1.1-2.1,10.61,10.61,0,0,1,2-1.7Z"/><path class="cls-5" d="M31.8,33c-1.5.5-3.1,1.1-4.6,1.6-2.1.7-4.4,1.6-5.6,3.7a11.68,11.68,0,0,0-1.3,4.6,111.67,111.67,0,0,0-.8,12.9c0,3,.3,6.3,2.2,8.4s4.9,2.3,7.6,2.3c4.3,0,8.6.1,12.9.1a29.78,29.78,0,0,0,6-.4,24.09,24.09,0,0,0,5.4-2.1,2.29,2.29,0,0,0,1-.7,3.46,3.46,0,0,0,.5-2.1c.2-6.5.3-13-.9-19.3-.6-3-1.5-6-3.4-8.2A10.49,10.49,0,0,0,42,30.6c-.3,0-.8,3.8-3.9,4.6-1.3.3-5.1-.7-6.3-2.2"/><path class="cls-2" d="M39.7,59.6c-.5-1.4-1.9-4.6-2.4-6a1.69,1.69,0,0,1,.1-1.7c.2-.2.5-.2.8-.3,2-.3,4-.6,5.9-.9.2,0,.4-.1.6,0a1,1,0,0,1,.5,1c.2,1.6.3,3.3.5,4.9-1.6-.7-2.5,1.4-4.2,2a16.18,16.18,0,0,1-1.8,1"/><path class="cls-3" d="M35.3,57.4a26.92,26.92,0,0,1,3.2-2.7.37.37,0,0,1,.3-.1c.1,0,.1.1.2.2a2.12,2.12,0,0,1,0,1.9c-.1.2-.3.5-.1.7a.75.75,0,0,0,.5.1c2.5-.3,4.8-1.7,7.3-1.7A4.37,4.37,0,0,1,44.1,58c.6-.3,1.1-.6,1.7-.9.3-.1.5-.3.8-.3a.5.5,0,0,1,.5.6c0,.2-.2.3-.3.4a10.89,10.89,0,0,1-2.3,1.4,5.39,5.39,0,0,0,1.3-.7c.5-.2,1.2.1,1.1.5,0,.2-.3.4-.5.5a16.29,16.29,0,0,1-1.7,1.1,7.46,7.46,0,0,1,1.2-.7.6.6,0,0,1,.4-.1c.4,0,.5.5.3.8a1.46,1.46,0,0,1-.9.6,24.16,24.16,0,0,1-8.8,1.7,3,3,0,0,1-1.3-.2,2.42,2.42,0,0,1-1-1.9c-.3-1.3-.4-2.8.6-3.7"/><path class="cls-6" d="M39.9,52.2a4.25,4.25,0,0,1-1.1.2c-.1,0-.3.1-.4.1a.48.48,0,0,0-.2.6.43.43,0,0,0,.4.4H39c.1,0,.3-.1.4-.1a1.42,1.42,0,0,0,.6-.2.55.55,0,0,0,.3-.5c.1-.3-.1-.5-.4-.5"/><path class="cls-6" d="M39.9,52.1a4.25,4.25,0,0,1-1.1.2c-.2.1-.5.1-.6.3a.59.59,0,0,0,.5.9,3.55,3.55,0,0,0,1-.2,1.61,1.61,0,0,0,.7-.4c.2-.2,0-.8-.5-.8,0,.1,0,.2.1.2.3,0,.4.3.4.5a.66.66,0,0,1-.5.4c-.2.1-.4.1-.6.2s-.5.1-.7.1-.4-.3-.3-.5.2-.4.5-.4l1.2-.3c0-.1,0-.2-.1-.2Z"/><path class="cls-3" d="M40.1,35.3a3.53,3.53,0,0,0-.3-1.4v-.1a24.93,24.93,0,0,1-.9-4.6c0-.2-.2-.3-.4-.2-1,.8-2.4.5-3.5.7a.73.73,0,0,0-.6.2c-.2.2,0,.3-.1.5-.1,1.2-.3,2.3-.5,3.5-.1.4-.2.7-.3,1.1,0,.2-.1.3-.1.5a.86.86,0,0,0,.6.7,3.23,3.23,0,0,0,1.7.3,6.37,6.37,0,0,0,4.4-1.2Z"/><path class="cls-7" d="M27.5,45.1v9.8a12.05,12.05,0,0,0,0,1.9c.1,1.2,1.4,1.5,2.4,1.7a17.85,17.85,0,0,0,4-.1c.3,0,.2-.4-.1-.4a13,13,0,0,1-3.4.2,9.36,9.36,0,0,1-1.6-.4,1.17,1.17,0,0,1-.8-1.1V45.2c-.1-.4-.5-.4-.5-.1Z"/><path class="cls-7" d="M46.8,44.7v7.6a.2.2,0,1,0,.4,0V44.7a.2.2,0,1,0-.4,0Z"/><path class="cls-7" d="M36.1,63.8a34.13,34.13,0,0,0-4.6,1c-.3.1-.1.5.1.4a23.55,23.55,0,0,1,4.6-1c.3,0,.2-.4-.1-.4Z"/><path class="cls-2" d="M37.6,38.5a.19.19,0,0,0,.3.1c.1-.1-.1-.3-.2-.3s-.4.1-.4.3a.27.27,0,0,0,.4.2"/><path class="cls-2" d="M37.4,38.6c.1.3.4.4.6.2a.3.3,0,0,0,0-.4.52.52,0,0,0-.4-.2h.1c-.3-.1-.7.2-.6.5a.52.52,0,0,0,.8.2.21.21,0,0,0-.3-.3c-.1,0-.2-.1,0-.1h.2s0-.1.1,0c-.2-.3-.5-.2-.5.1Z"/><path class="cls-2" d="M37.6,41.9a.19.19,0,0,0,.3.1c.1-.1-.1-.3-.2-.3s-.4.1-.4.3a.27.27,0,0,0,.4.2"/><path class="cls-2" d="M37.4,42c.1.3.4.4.6.2a.3.3,0,0,0,0-.4.52.52,0,0,0-.4-.2h.1c-.3-.1-.7.2-.6.5a.52.52,0,0,0,.8.2.21.21,0,0,0-.3-.3c-.1,0-.2-.1,0-.1h.2s0-.1.1,0c-.2-.3-.5-.2-.5.1Z"/><path class="cls-8" d="M76.2,32.2c-1.1,0-2.2-.1-3.2-.2"/><path class="cls-8" d="M76.2,31.6c-1.1,0-2.2-.1-3.2-.2-.8-.1-.8,1.2,0,1.2,1.1.1,2.2.2,3.2.2.8.1.8-1.2,0-1.2Z"/><path class="cls-8" d="M71.6,35.2a5.89,5.89,0,0,0,2.3,2.4"/><path class="cls-8" d="M71,35.5a7,7,0,0,0,2.5,2.6c.7.4,1.3-.7.6-1.1A5.3,5.3,0,0,1,72,34.9c-.3-.7-1.3-.1-1,.6Z"/><path class="cls-8" d="M74.6,26.7l-2.7,2.1"/><path class="cls-8" d="M74.3,26.2l-2.7,2.1c-.6.5,0,1.6.6,1.1l2.7-2.1c.6-.5,0-1.6-.6-1.1Z"/><path class="cls-8" d="M70,24.1c-.5,1-1,2-1.4,2.9"/><path class="cls-8" d="M69.5,23.8c-.5,1-1,1.9-1.4,2.9-.3.7.8,1.4,1.1.6a25.91,25.91,0,0,1,1.4-2.9c.3-.7-.7-1.3-1.1-.6Z"/><path class="cls-8" d="M64.7,27.8a5.49,5.49,0,0,1-.9-3.3"/><path class="cls-8" d="M65.3,27.5a5.1,5.1,0,0,1-.8-2.9c0-.8-1.3-.8-1.2,0a6.53,6.53,0,0,0,1,3.6c.3.6,1.4,0,1-.7Z"/><path class="cls-5" d="M58.3,40.8c-1-3-1.8-6.1-2.5-9.2-.4-1.7-.7-3.6.4-5,1.4-1.7,4.1-1.1,5.3.6a6.11,6.11,0,0,1,.7,1.4,2.46,2.46,0,0,0,3.5,1.6c.1-.1.2-.1.3-.2,2.4-1,4.4,1.7,3.1,4.3A8.07,8.07,0,0,1,65.5,38c-2,.9-4.2,1-6,2.3"/><path class="cls-4" d="M34.3,25.2c1.3,1.4,3,1.2,4.3-.4.3-.3,0-1.1-.2-.8-1.1,1.5-2.6,1.7-3.8.4-.3-.2-.5.6-.3.8Z"/></svg>