<svg id="Layer_1" data-name="Layer 1" xmlns="http://www.w3.org/2000/svg" viewBox="0 0 82.6 70"><defs><style>.cls-1{fill:#a899ee;}.cls-2{fill:#414146;}.cls-3{fill:#e0e0e0;}.cls-4{fill:#9eb7da;}.cls-5{fill:#ffb40a;}.cls-6{fill:#f0f0f5;}.cls-7{fill:#006e00;}.cls-8{fill:#ffc333;}</style></defs><title>Artboard 1 copy</title><path class="cls-1" d="M21.08,54.95a99.72,99.72,0,0,0-12.5,3c-2.3.7-4.6,1.7-3.6,2.7,1.4,1.5,7.9,1.3,11.1,2.4,2.5.8,2.6,2.3,4.5,3.2,2.7,1.4,8,1.5,12.6,1.6l22.9.3a65,65,0,0,0,10.9-.4,22.93,22.93,0,0,0,7.4-2.4c2.9-1.6,4.2-3.7,3.1-5.6s-4.8-3.7-9.8-4.5c-2.3-.4-4.9-1.3-7.3-.6-13.5,3.8-29-2-39.3.3"/><path class="cls-2" d="M31.78,19a3.61,3.61,0,0,0-2.8,1.5,10.88,10.88,0,0,0-.6,3.6c-.1,11.3-.1,12.9-.2,24.1,0,1.2-.3,10.8,3.2,12,6.2,2.1,13.8.7,20.3.8,2.1,0,3.4-.4,4.7-2.3a8.77,8.77,0,0,0,1-4,176.35,176.35,0,0,0-.7-32.5c-.2-1.3,0-2-.7-3.1-1.4-2.1-4.4-1.5-6.7-1.2-5.9.7-11.7.4-17.5,1.1"/><path class="cls-3" d="M31.28,28.45c-.2-3.8-.5-6.9-.6-10.7a46.05,46.05,0,0,1,.8-10.5A2.57,2.57,0,0,1,32,6a2.23,2.23,0,0,1,1.3-.6,73.54,73.54,0,0,1,16.2-1,3.92,3.92,0,0,1,1.8.4,3.07,3.07,0,0,1,1.1,1.8,21.13,21.13,0,0,1,.5,7.1c-.1,4.2-.2,8.5-.3,12.7a1,1,0,0,1-.2.7c-.1.1-.3.1-.5.2-6.8.4-13.7.7-20.6,1.1"/><path class="cls-4" d="M33.48,43v.4c0,.6.1,1.3.1,2v.1h.1a24.3,24.3,0,0,1,2.7,0c.1,0,.2-.1.1-.1V43h-3"/><path class="cls-4" d="M38.58,43v.4c0,.6.1,1.3.1,2v.1h.1a24.3,24.3,0,0,1,2.7,0c.1,0,.2-.1.1-.1V43h-3"/><path class="cls-4" d="M43.28,42.95v.4c0,.6.1,1.3.1,2v.1h.1a24.3,24.3,0,0,1,2.7,0c.1,0,.2-.1.1-.1v-2.4h-3"/><path class="cls-4" d="M48.48,43v.4c0,.6.1,1.3.1,2v.1h.1a24.3,24.3,0,0,1,2.7,0c.1,0,.2-.1.1-.1V43h-3"/><path class="cls-4" d="M33.48,47.45v.4c0,.6.1,1.3.1,2v.1h.1a24.3,24.3,0,0,1,2.7,0c.1,0,.2-.1.1-.1v-2.4h-3"/><path class="cls-4" d="M38.58,47.45v.4c0,.6.1,1.3.1,2v.1h.1a24.3,24.3,0,0,1,2.7,0c.1,0,.2-.1.1-.1v-2.4h-3"/><path class="cls-4" d="M43.28,47.35v.4c0,.6.1,1.3.1,2v.1h.1a24.3,24.3,0,0,1,2.7,0c.1,0,.2-.1.1-.1v-2.4h-3"/><path class="cls-4" d="M48.48,47.45v.4c0,.6.1,1.3.1,2v.1h.1a24.3,24.3,0,0,1,2.7,0c.1,0,.2-.1.1-.1v-2.4h-3"/><path class="cls-4" d="M33.48,51.85v.4c0,.6.1,1.3.1,2v.1h.1a24.3,24.3,0,0,1,2.7,0c.1,0,.2-.1.1-.1v-2.4c-1,0-2,.1-3,0"/><path class="cls-4" d="M38.58,51.85v.4c0,.6.1,1.3.1,2v.1h.1a24.3,24.3,0,0,1,2.7,0c.1,0,.2-.1.1-.1v-2.4c-1,0-2,.1-3,0"/><path class="cls-4" d="M43.28,51.75v.4c0,.6.1,1.3.1,2v.1h.1a24.3,24.3,0,0,1,2.7,0c.1,0,.2-.1.1-.1v-2.4h-3"/><path class="cls-4" d="M48.48,51.85v.4c0,.6.1,1.3.1,2v.1h.1a24.3,24.3,0,0,1,2.7,0c.1,0,.2-.1.1-.1v-2.4a30,30,0,0,1-3,0"/><path class="cls-5" d="M32.78,38.35l20.4-.9c.2,0,.4,0,.5-.2s.7-3.5-.9-4.2c-1.1-.4-16.2-.9-19.7.9-1.2.7-1.4,2.6-.3,4.4"/><path class="cls-6" d="M32.48,28.45c-.2-3.8-.5-6.9-.6-10.7a46.05,46.05,0,0,1,.8-10.5,2.57,2.57,0,0,1,.5-1.2,2,2,0,0,1,1.3-.6,69.11,69.11,0,0,1,15.7-1,3.29,3.29,0,0,1,1.7.4,2.94,2.94,0,0,1,1,1.8,24.07,24.07,0,0,1,.5,7.1c-.1,4.2-.2,8.5-.3,12.7a1,1,0,0,1-.2.7c-.1.1-.3.1-.5.2-6.6.4-13.3.7-19.9,1.1"/><path class="cls-4" d="M48.88,4.35a10.68,10.68,0,0,1,2.5.1,2.62,2.62,0,0,1,1.7,1.7,3.42,3.42,0,0,1,.3,1.7,12.39,12.39,0,0,1,.1,2.8,4.75,4.75,0,0,0-4.2-2.1,4,4,0,0,0,.9-2c0-.7-.6-2.1-1.3-2.2"/><path class="cls-7" d="M40.18,13.55c.3-1.1,1.6-1.2,2.5-.6a3,3,0,0,1,1.2,2.8,3.17,3.17,0,0,1-4.4,2.5c-.3-.1-.6.3-.4.5a14,14,0,0,0,5.5,3.8c.4.2.8-.4.4-.6-1.9-.9-3.9-1.8-5.3-3.6a2.18,2.18,0,0,1-.4.5,3.86,3.86,0,0,0,5-2c.8-1.9,0-4.6-2.2-5.1a2.09,2.09,0,0,0-2.6,1.5c-.1.6.6.8.7.3Z"/><path class="cls-7" d="M36.88,15.65l11.4-.3c.5,0,.5-.8,0-.7l-11.4.3c-.5-.1-.5.7,0,.7Z"/><path class="cls-7" d="M36.38,12.65l11.4-.3c.5,0,.5-.8,0-.7l-11.4.3c-.4,0-.5.7,0,.7Z"/><path class="cls-5" d="M30.58,30.35A92,92,0,0,1,54,29.15c.3,0,.6,0,.7-.4a1.89,1.89,0,0,0-.1-1.5c-.2-.3-.5-.3-.8-.4a89.87,89.87,0,0,0-23.1,1.5c-.2,0-.4.4-.5.8-.1,1,.3,1.5.4,1.2"/><path class="cls-8" d="M57.18,12.45a15.61,15.61,0,0,1,2.7-5.1c.5-.6-.4-1.5-.9-.9a17.56,17.56,0,0,0-3.1,5.7c-.2.7,1,1,1.3.3Z"/><path class="cls-8" d="M60.18,14.85c1.5-.9,3.1-1.8,4.6-2.8.7-.4.1-1.5-.6-1.1-1.5.9-3.1,1.8-4.6,2.8-.7.5,0,1.6.6,1.1Z"/><path class="cls-8" d="M61,19.15c1.6.3,3.1.7,4.7,1a.62.62,0,0,0,.3-1.2c-1.6-.3-3.1-.7-4.7-1-.7-.1-1.1,1.1-.3,1.2Z"/></svg>