<svg xmlns="http://www.w3.org/2000/svg" xmlns:xlink="http://www.w3.org/1999/xlink" width="199" height="140" viewBox="0 0 199 140"><defs><path id="a" d="M76.265.135H.323v78.618h75.942z"/></defs><g fill="none" fill-rule="evenodd"><path fill="#F0F0F5" fill-rule="nonzero" d="M75.14 62.555l-12.207 3.692c-5.607 1.696-11.64 3.691-14.98 8.498-2.143 3.084-2.857 6.912-3.408 10.625a189.12 189.12 0 0 0-2.04 29.516c.064 6.887.812 14.475 5.781 19.252 5.11 4.912 12.956 5.238 20.047 5.273l34.29.171c5.354.027 10.752.05 16.004-.99 4.903-.97 9.573-2.844 14.209-4.71.964-.387 1.96-.797 2.665-1.559 1.137-1.23 1.25-3.06 1.302-4.734.46-14.809.906-29.796-2.252-44.272-1.5-6.872-3.97-13.838-9.017-18.744-6.015-5.845-14.941-8.068-23.305-7.37-.735.062-2.217 8.82-10.388 10.45-3.452.687-13.587-1.764-16.7-5.098"/><path fill="#FF6E00" fill-rule="nonzero" d="M65.096 24.774c1.597 3.823 6.168 5.268 10.194 6.266 1.474.366 4.817.573 5.687-.671 1.298-1.855-2.726-4.568-1.604-6.533 2.88 1.577 3.88 4.6 7.972 5.745 4.873-3.929 2.285-5.823 2.03-7.442.95.955 1.771 2.138 3.031 2.615 1.26.479 3.086-.332 2.915-1.667a21.353 21.353 0 0 1 3.73 9.858 10.021 10.021 0 0 1 6.215-2.27c1.457 2.175.676 5.513-1.594 6.819-.753.433-1.66.691-2.174 1.391-.34.463-.45 1.049-.552 1.613l-1.462 8.082c-.153.845-.303 1.734-.025 2.547.383 1.119 1.47 1.816 2.485 2.426l2.718 1.635c.376.226.77.458 1.207.498 1.341.124 2.136-1.526 2.13-2.871-.006-1.345-.376-2.798.288-3.968.503-.884 1.477-1.373 2.206-2.083 2.016-1.964 1.851-5.228 1.213-7.967-.638-2.74-1.604-5.617-.718-8.287.655-1.975 2.276-4.083 1.212-5.87-.577-.97-1.753-1.38-2.623-2.1-2.02-1.669-3.471-5.097-3.757-7.698-.286-2.602-1.435-5.672-4.024-6.076-1.264-.196-5.695-4.19-6.791-5.095C88.28-1.883 66.71.04 57.236 11.112c-1.534 1.794-3.823 10.565-3.51 12.172.9 4.613-3.28 6.205-2.164 10.77.256 1.046 1 3.95 1.39 4.954 1.237 3.194 2.094 6.558 1.18 9.86-.914 3.3-.729 7.664 2.37 9.131 1.041.493 2.247.55 3.288 1.044 1.786.847 2.738 2.775 4.059 4.245 1.32 1.47 3.753 2.485 5.184 1.123.64-.609.88-1.535 1.48-2.182 1.123-1.213 3.21-1.159 4.259-2.437 1.176-1.433.673-3.748-.459-5.216-1.967-2.55-3.883-3.201-4.67-5.334-.578-1.57.209-4.833-1.814-5.709-1.237-.536-5.978-1.539-6.822-2.589-.845-1.05-.491-4.97.854-5.068 1.41-.1 3.677 1.551 5.014 1.094.223-4.28-1.183-6.297-1.78-10.543"/><path fill="#FFC828" fill-rule="nonzero" d="M104.708 31.239c-1.874-1.016-4.013.705-5.446 2.281a32.167 32.167 0 0 0-3.648-11.497l-1.257 2.234-6.116-1.696c.782 2.098-1.146 3.166-1.14 5.404l-9.428-4.713c1.475 2.175 2.038 5.19.54 5.567-5.988-.833-9.017-1.5-14.03-4.877l-.775.616a68.367 68.367 0 0 1 3.467 12.412c-.79-1.807-3.464-2.312-5.014-1.093-1.552 1.22-1.803 3.68-.743 5.344 1.06 1.663 3.177 2.488 5.14 2.268.528-.059 1.09-.18 1.571.045.892.414.919 1.636.985 2.616.253 3.729 3.09 7.778 6.517 9.277 1.405.616 2.914.381 4.435.557.67 2.593-1.902 6.36-4.625 6.571.022 1.731 1.668 2.38 3.113 3.334 1.445.955 3.178 1.373 4.89 1.635 3.941.6 7.995.457 11.883-.421 1.424-.322 2.913-.797 3.848-1.917.9-1.08 4.76-7.912 3.354-7.983-2.308-.116-2.222.578-4.567-.112-1.694-.499-2.098-2.178-2.462-3.984 2.56-2.21 5.446-7.243 5.168-10.603-.06-.72-.202-1.478.09-2.14.279-.635.901-1.04 1.49-1.41 1.413-.885 2.885-1.837 3.667-3.308.782-1.47.56-3.614-.907-4.407"/><path fill="#E1E1E1" fill-rule="nonzero" d="M64.589 65.733l-3.364 9.92c-1.02 3.012-2.775 6.413-3.194 9.56-.615 4.61 6.17 3.128 8.903 3.104l-.798-.798c.014 2.471-1.586 4.536-1.506 7 .055 1.726.844 3.341 1.81 4.734 2.883 4.168 7.1 7.685 10.616 11.308.717.738 1.845-.39 1.129-1.128-3.083-3.177-6.364-6.247-9.258-9.598-1.74-2.014-3.136-4.316-2.467-7.072.445-1.835 1.284-3.31 1.273-5.244a.808.808 0 0 0-.799-.797l-3.507.03c-1.442.014-2.081.356-2.983-.95-1.162-1.68.685-4.899 1.332-6.806l4.353-12.839c.33-.974-1.212-1.393-1.54-.424m47.45-6.963c2.834 3.332 5.626 7.962 6.397 12.342.89 5.058-3.71 2.408-5.525 5.326-.243.391-.057.846.286 1.09 1.326.95 2.802 1.965 3.871 3.214.641.748 1.644 2.045 1.454 3.114-.133.748-1.356 1.827-1.795 2.419l-6.105 8.226c-.613.825.773 1.621 1.38.805l5.027-6.774c.992-1.338 3.328-3.446 3.503-5.244.272-2.777-4.649-5.79-6.529-7.136.097.364.192.727.287 1.091 1-1.606 3.884-.764 5.239-1.992 1.217-1.105.997-2.607.615-4.054-1.307-4.94-3.67-9.668-6.976-13.554-.666-.783-1.79.35-1.129 1.128m-54.072 50.046c.115 4.074.752 8.653 4.358 11.175 3.87 2.705 9.131 1.87 13.496 3.023l-.353-1.334c-1.791 1.856-1.3 5.198-1.035 7.539.371 3.285 1.384 6.364 2.863 9.31.461.918 1.839.11 1.379-.805-1.13-2.25-1.984-4.6-2.435-7.08-.348-1.913-1.153-6.27.358-7.836.412-.426.238-1.177-.352-1.332-3.42-.903-7.062-.612-10.444-1.621-5.078-1.515-6.105-6.339-6.238-11.039-.03-1.024-1.627-1.029-1.597 0m62.513.468c-.918 2.825-3.33 4.775-6.247 5.225-1.013.156-.583 1.693.424 1.538 3.471-.534 6.286-3.023 7.364-6.34.318-.978-1.224-1.397-1.54-.423"/><path fill="#28328C" fill-rule="nonzero" d="M93.983 128.422c-1.32-4.464-5.492-14.679-6.812-19.142-.554-1.875-.992-4.271.355-5.547.635-.602 1.506-.757 2.33-.89l16.937-2.722c.578-.093 1.19-.182 1.73.068 1.083.504 1.355 2.05 1.474 3.356l1.433 15.63c-4.54-2.353-9.845-.571-14.578 1.233l-5.664 2.16"/><path fill="#FFC828" fill-rule="nonzero" d="M76.4 120.78a60.255 60.255 0 0 1 9.985-8.26c.239-.158.515-.32.795-.255.268.064.44.32.572.563.938 1.756.982 3.962.112 5.753-.346.713-.812 1.611-.294 2.21.364.42 1.01.404 1.56.337 7.74-.945 14.894-5.404 22.691-5.299-1.588 3.236-4.532 5.782-7.967 6.887l5.28-2.849c.823-.442 1.704-.9 2.635-.827.931.073 1.862.923 1.651 1.832-.12.518-.556.895-.975 1.223a32.624 32.624 0 0 1-7.175 4.257c1.532-.255 2.682-1.524 4.117-2.115 1.436-.592 3.677.17 3.41 1.697-.128.735-.797 1.236-1.414 1.657l-5.21 3.56a28.915 28.915 0 0 1 3.631-2.11c.402-.195.834-.385 1.279-.338 1.09.115 1.515 1.642.973 2.594-.542.952-1.632 1.43-2.656 1.821a82.345 82.345 0 0 1-27.205 5.417c-1.344.036-2.757.023-3.937-.622-2.047-1.119-2.705-3.69-3.16-5.977-.792-3.966-1.293-8.81 1.851-11.36"/><path fill="#FFF" fill-rule="nonzero" d="M94.68 104.166l-3.12.687c-.386.085-.783.175-1.109.399a1.572 1.572 0 0 0-.625 1.606 1.575 1.575 0 0 0 1.265 1.171c.37.057.746-.024 1.113-.103l1.089-.238c.628-.137 1.27-.28 1.816-.62.546-.34.986-.921.978-1.563-.01-.643-.596-1.272-1.232-1.173"/><g transform="translate(122.655 .503)"><mask id="b" fill="#fff"><use xlink:href="#a"/></mask><path fill="#13BEF0" fill-rule="nonzero" d="M.61 75.623c6.556-7.96 9.923-18.213 7.367-28.198-.967-3.779-2.598-7.353-3.793-11.065a50.205 50.205 0 0 1-2.346-17.947c.058-1.112.16-2.252.65-3.253.482-.981 1.3-1.753 2.143-2.45 6.51-5.396 15.065-7.508 23.326-9.323C40.477.637 53.753-1.756 65.913 2.3c2.425.81 4.846 1.925 6.528 3.847 2.3 2.632 2.858 6.322 3.19 9.8a140.94 140.94 0 0 1-.02 26.91c-.51 5.286-1.565 11.013-5.571 14.505-2.266 1.975-5.207 2.97-8.095 3.807a116.87 116.87 0 0 1-14.637 3.242c-6.995 1.085-14.092 1.535-21.017 2.996-6.926 1.462-13.808 4.036-19.06 8.776-1.237 1.116-2.521 2.413-4.181 2.562-1.66.147-3.432-1.784-2.44-3.122" mask="url(#b)" style="mix-blend-mode:multiply"/></g><path fill="#FFF4EF" fill-rule="nonzero" d="M133.635 30.512c5.893-2.693 12.074-4.439 18.49-5.324 2.027-.28 1.164-3.354-.85-3.076-6.705.925-13.1 2.835-19.252 5.646-1.866.853-.246 3.603 1.612 2.754m25.875-6.51a75.776 75.776 0 0 1 26.905-2.977c2.052.14 2.043-3.05 0-3.19a78.376 78.376 0 0 0-27.754 3.091c-1.965.585-1.128 3.665.85 3.076M138.04 41.427c5.749-1.97 11.484-4.584 17.65-4.566 5.972.017 11.748-.577 17.65-1.458 2.026-.303 1.165-3.377-.849-3.077-3.437.514-6.878 1.03-10.348 1.251-2.908.187-5.82-.035-8.724.137-5.585.332-10.994 2.842-16.227 4.637-1.933.662-1.104 3.745.849 3.076m2.175 11.105l7.702-.745c2.027-.197 2.048-3.389 0-3.19l-7.702.745c-2.029.196-2.049 3.388 0 3.19"/><path fill="#28328C" fill-rule="nonzero" d="M2.204 67.984c11.286-6.535 23.212-7.94 36.257-7.752 1.05.015 2.138.06 3.08.522.979.479 1.703 1.359 2.262 2.293 3.153 5.272 1.638 11.93.812 18.016-.825 6.086-.192 13.516 5.172 16.52 1.499.838 3.596 1.843 3.206 3.514-.25 1.067-1.44 1.581-2.481 1.925a178.163 178.163 0 0 1-31.454 7.315c-3.124.433-6.487.744-9.27-.738-3.975-2.118-5.358-7.043-6.223-11.459a232.097 232.097 0 0 1-3.54-25.445c-.16-1.926.43-3.322 2.179-4.711"/><path fill="#FFF4EF" fill-rule="nonzero" d="M7.698 80.272a74.646 74.646 0 0 1 17.008-6.017c1.504-.337.867-2.644-.637-2.307a77.426 77.426 0 0 0-17.58 6.259c-1.38.686-.169 2.75 1.209 2.065m21.068-6.729a85.623 85.623 0 0 1 11.911-1.013c1.54-.025 1.545-2.418 0-2.393a90.17 90.17 0 0 0-12.548 1.1c-1.519.237-.874 2.543.637 2.306M11.162 90.024c1.431-1.657 3.23-2.742 5.367-3.222 1.504-.337.868-2.645-.637-2.307a11.902 11.902 0 0 0-6.424 3.838c-1.003 1.16.685 2.86 1.694 1.691m9.788-4.399c4.962-1.865 10.044-2.82 15.349-2.852 1.54-.008 1.544-2.4 0-2.392-5.512.032-10.823.996-15.985 2.937-1.43.537-.81 2.85.636 2.307m-4.977 12.823c5.595-2.436 11.458-3.692 17.558-3.824 1.54-.033 1.545-2.425 0-2.392-6.538.14-12.774 1.54-18.767 4.15-1.41.614-.191 2.675 1.209 2.066m21.959-3.815l1.883.316c.616.103 1.32-.162 1.474-.835.131-.58-.176-1.361-.837-1.472l-1.884-.316c-.615-.104-1.319.161-1.473.835-.132.579.176 1.36.837 1.472"/><path fill="#64D2FF" fill-rule="nonzero" d="M76.344 65.374c8.102 3.191 17.913 1.53 24.508-4.15.871 12.779 1.736 25.678-.167 38.346-.059.39-.139.816-.44 1.073-.28.238-.677.267-1.045.285l-7.476.354c-.476.022-.98.04-1.4-.184-.484-.256-.758-.774-1.002-1.262A178.706 178.706 0 0 1 76.27 64.988"/><path fill="#FFA000" fill-rule="nonzero" d="M80.895 43.195c-1.517 4.023 4.636 5.346 7.224 3.814 1.47-.871 2.474-2.456 2.705-4.137.199-1.45-.218-3.063-1.884-3.171-1.027-.066-1.023 1.53 0 1.595.741.048.197 1.96.072 2.283-.325.84-.92 1.59-1.7 2.052-1.39.826-5.872.624-4.878-2.012.363-.962-1.18-1.378-1.54-.424m-5.587 12.57c8.736 1.174 19.273 1.938 24.762-6.459.564-.862-.819-1.662-1.379-.805-5.03 7.695-15.022 6.792-22.958 5.726-1.005-.134-1.44 1.402-.425 1.538"/></g></svg>