<svg id="Layer_1" data-name="Layer 1" xmlns="http://www.w3.org/2000/svg" viewBox="0 0 89.39 70"><defs><style>.cls-1{fill:#ffd97b;}.cls-2{fill:#b4b4be;}.cls-3{fill:#414146;}.cls-4{fill:#f0f0f5;}.cls-5{fill:#62cae8;}.cls-6{fill:#ed6767;}.cls-7{fill:#0fdc96;}.cls-8{fill:#fff;}</style></defs><title>Artboard 1 copy 2</title><path id="Fill-1" class="cls-1" d="M24.79,42.09a8.1,8.1,0,0,0-2.2,0c-4,.6-7.4,1.4-11.3,2.3-3.6.9-7.3,2.1-8.5,4.3A2.06,2.06,0,0,0,4,51.79a8.29,8.29,0,0,0,3.2.4c2.3,0,4.6,3.4,7,3.4,3.5.1,7.5.3,9.8,2,1.5,1.2,7.9,2.6,11.7,3.4a56.18,56.18,0,0,0,11.6.9c6.2-.1,25-.6,26.2-2.4a15.68,15.68,0,0,0,1-2.8c.8-2.1,3.3-4,6.7-4.7,2.4-.6,5.5-.8,6.5-2.2.6-1-.1-2.2-1.3-3-3.3-2.6-9.2-3.2-14.4-3.6,1.5-.5,1-2-.5-2.6a10.88,10.88,0,0,0-5.1-.3c-13.9,1.3-27.8,3.9-41.6,1.8"/><path id="Fill-4" class="cls-2" d="M23.29,45.39a2.39,2.39,0,0,1,.9-.2q6.15-.15,12.3,0c8.4.1,16.8.3,25.2.4a9.15,9.15,0,0,1,1.7.1,5,5,0,0,1,1.3.4A98.8,98.8,0,0,1,76.29,51q.45.3.3.6c-.2.3-1,.4-1.6.4-19.8.6-40.3,0-60.1-.2a5.1,5.1,0,0,1-2.6-.4c-.2-.2-.3-.4-.2-.6a3.32,3.32,0,0,1,1.7-1.1c3.4-1.4,6-2.9,9.5-4.3"/><path id="Fill-6" class="cls-3" d="M23.29,54.09h13.2c8.4,0,16.8-.1,25.2-.1h1.7c.5,0,.9-.1,1.3-.1,4-.4,8.5-.9,11.6-1.3.3,0,.6-.9.5-.9a6.66,6.66,0,0,0-1.6-.1c-19.8-.2-40.6-.5-60.5-.5a19.34,19.34,0,0,0-2.6.1c-.2,0-.1,1.4,0,1.5a8.92,8.92,0,0,0,1.7.3c3.4.3,6,.7,9.5,1.1"/><path id="Fill-8" class="cls-3" d="M21,14.29c3.5-.6,6.7-.3,10.3-.4l26.7-.3c2.5,0,5-.1,7.5-.1,1.6,0,3.3,0,4.5.9a5.21,5.21,0,0,1,1.9,3.8,15.4,15.4,0,0,1-.6,4.3q-2.85,11.1-6.3,21.9a1.91,1.91,0,0,1-.5,1,2.07,2.07,0,0,1-1,.6,14.81,14.81,0,0,1-6.3.8c-9,0-18.1-.6-27.1-1.4-1.5-.1-2.9.1-4.4,0-.5-.1-.9,0-1.4-.1-1.3-.2-1.8-2.2-2-3.5-1.3-7.8-2.6-15.5-4-23.3a4.3,4.3,0,0,1-.2-2.5c.3-.7.5-1.9,2.9-1.7"/><path id="Fill-10" class="cls-4" d="M25.19,17.09a48,48,0,0,1,8.5-.3c7.3-.1,14.7-.2,22-.2,2.1,0,4.1,0,6.2-.1a5.81,5.81,0,0,1,3.7.8,3.75,3.75,0,0,1,1.5,3.1,11.19,11.19,0,0,1-.5,3.6c-1.5,6.1-3.3,12.1-5.2,18.1a2,2,0,0,1-.4.8,2.18,2.18,0,0,1-.8.5,12.87,12.87,0,0,1-5.2.7,165.83,165.83,0,0,1-22.3-1.3c-1.2-.2-2.5-.1-3.7-.2a4.87,4.87,0,0,1-1.2-.1c-1.1-.2-1.5-1.5-1.7-2.6l-3.3-19.2c-.1-.8-.4-1.3-.1-2s.5-1.7,2.5-1.6"/><path class="cls-5" d="M42.09,22.79v2.5a.37.37,0,0,0,.1.3.76.76,0,0,0,.4.2,26.2,26.2,0,0,0,2.8-.1c.1,0,.2,0,.2-.1a.37.37,0,0,0,.1-.3,19.22,19.22,0,0,0,0-2.4.4.4,0,0,0-.5-.5,8.2,8.2,0,0,0-3.1.3"/><path class="cls-5" d="M47.29,22.59v2.5a.37.37,0,0,0,.1.3.76.76,0,0,0,.4.2,26.2,26.2,0,0,0,2.8-.1c.1,0,.2,0,.2-.1a.37.37,0,0,0,.1-.3,19.22,19.22,0,0,0,0-2.4.4.4,0,0,0-.5-.5,8.2,8.2,0,0,0-3.1.3"/><path class="cls-5" d="M32.29,37.69v2.5a.37.37,0,0,0,.1.3.76.76,0,0,0,.4.2,26.2,26.2,0,0,0,2.8-.1c.1,0,.2,0,.2-.1a.37.37,0,0,0,.1-.3,19.22,19.22,0,0,0,0-2.4.4.4,0,0,0-.5-.5,8.2,8.2,0,0,0-3.1.3"/><path class="cls-5" d="M37.59,37.49V40a.37.37,0,0,0,.1.3.76.76,0,0,0,.4.2,26.2,26.2,0,0,0,2.8-.1c.1,0,.2,0,.2-.1a.37.37,0,0,0,.1-.3,19.22,19.22,0,0,0,0-2.4.4.4,0,0,0-.5-.5,8.2,8.2,0,0,0-3.1.3"/><path class="cls-5" d="M43.29,37.49V40a.37.37,0,0,0,.1.3.76.76,0,0,0,.4.2,26.2,26.2,0,0,0,2.8-.1c.1,0,.2,0,.2-.1a.37.37,0,0,0,.1-.3,19.22,19.22,0,0,0,0-2.4.4.4,0,0,0-.5-.5,8.2,8.2,0,0,0-3.1.3"/><path class="cls-5" d="M52.69,22.69v2.5a.37.37,0,0,0,.1.3.76.76,0,0,0,.4.2,26.2,26.2,0,0,0,2.8-.1c.1,0,.2,0,.2-.1a.37.37,0,0,0,.1-.3,19.22,19.22,0,0,0,0-2.4.4.4,0,0,0-.5-.5,8.2,8.2,0,0,0-3.1.3"/><path class="cls-5" d="M31.79,28.19v2.5a.37.37,0,0,0,.1.3.76.76,0,0,0,.4.2,26.2,26.2,0,0,0,2.8-.1c.1,0,.2,0,.2-.1a.37.37,0,0,0,.1-.3,19.22,19.22,0,0,0,0-2.4.4.4,0,0,0-.5-.5,8.2,8.2,0,0,0-3.1.3"/><path class="cls-5" d="M37,27.89v2.5a.37.37,0,0,0,.1.3.76.76,0,0,0,.4.2,26.2,26.2,0,0,0,2.8-.1c.1,0,.2,0,.2-.1a.37.37,0,0,0,.1-.3,19.22,19.22,0,0,0,0-2.4.4.4,0,0,0-.5-.5,8.2,8.2,0,0,0-3.1.3"/><path class="cls-5" d="M42.29,28v2.5a.37.37,0,0,0,.1.3.76.76,0,0,0,.4.2,26.2,26.2,0,0,0,2.8-.1c.1,0,.2,0,.2-.1a.37.37,0,0,0,.1-.3,19.22,19.22,0,0,0,0-2.4.4.4,0,0,0-.5-.5,8.2,8.2,0,0,0-3.1.3"/><path class="cls-5" d="M47.59,27.79v2.5a.37.37,0,0,0,.1.3.76.76,0,0,0,.4.2,26.2,26.2,0,0,0,2.8-.1c.1,0,.2,0,.2-.1a.37.37,0,0,0,.1-.3,19.22,19.22,0,0,0,0-2.4.4.4,0,0,0-.5-.5,8.2,8.2,0,0,0-3.1.3"/><path class="cls-5" d="M52.69,27.59v2.5a.37.37,0,0,0,.1.3.76.76,0,0,0,.4.2,26.2,26.2,0,0,0,2.8-.1c.1,0,.2,0,.2-.1a.37.37,0,0,0,.1-.3,19.22,19.22,0,0,0,0-2.4.4.4,0,0,0-.5-.5,8.2,8.2,0,0,0-3.1.3"/><path class="cls-5" d="M32.19,33v2.5a.37.37,0,0,0,.1.3.76.76,0,0,0,.4.2,26.2,26.2,0,0,0,2.8-.1c.1,0,.2,0,.2-.1a.37.37,0,0,0,.1-.3,19.22,19.22,0,0,0,0-2.4.6.6,0,0,0-.1-.4h-.4a8.2,8.2,0,0,0-3.1.3"/><path class="cls-5" d="M37.39,32.79v2.5a.37.37,0,0,0,.1.3.76.76,0,0,0,.4.2,26.2,26.2,0,0,0,2.8-.1c.1,0,.2,0,.2-.1a.37.37,0,0,0,.1-.3,19.22,19.22,0,0,0,0-2.4.4.4,0,0,0-.5-.5,8.2,8.2,0,0,0-3.1.3"/><path class="cls-5" d="M42.69,32.89v2.5a.37.37,0,0,0,.1.3.76.76,0,0,0,.4.2,26.2,26.2,0,0,0,2.8-.1c.1,0,.2,0,.2-.1a.37.37,0,0,0,.1-.3,19.22,19.22,0,0,0,0-2.4.4.4,0,0,0-.5-.5,8.2,8.2,0,0,0-3.1.3"/><path class="cls-6" d="M48,32.69v2.5a.37.37,0,0,0,.1.3.76.76,0,0,0,.4.2,26.2,26.2,0,0,0,2.8-.1c.1,0,.2,0,.2-.1a.37.37,0,0,0,.1-.3,19.22,19.22,0,0,0,0-2.4.4.4,0,0,0-.5-.5,8.2,8.2,0,0,0-3.1.3"/><path class="cls-5" d="M53.09,32.49V35a.37.37,0,0,0,.1.3.76.76,0,0,0,.4.2,26.2,26.2,0,0,0,2.8-.1c.1,0,.2,0,.2-.1a.37.37,0,0,0,.1-.3,19.22,19.22,0,0,0,0-2.4.4.4,0,0,0-.5-.5,8.2,8.2,0,0,0-3.1.3"/><path class="cls-7" d="M77.79,11.19a2.83,2.83,0,0,0-1.6-2.4c-.6-.3-1.1.7-.4,1a1.64,1.64,0,0,1,1,1.5c.1.7,1.2.6,1-.1Z"/><path class="cls-7" d="M80,11.29a4.52,4.52,0,0,0-3.9-4.8c-.7-.1-.8.9-.2,1.1,1.8.4,3.2,1.6,3.1,3.6a.5.5,0,0,0,1,.1Z"/><path class="cls-7" d="M82.49,10.79c0-3.2-2.2-5.5-5.4-6.5-.9-.3-1,1-.1,1.3,2.4.7,4.2,2.4,4.1,4.8,0,.9,1.4,1.2,1.4.4Z"/><path class="cls-6" d="M59.69,20.09c6,2.8,9.1,4.2,10.8,3a7.11,7.11,0,0,0,1.8-2.6c1.4-2.8,2.8-5.9,2.8-9.1a1.58,1.58,0,0,0-1.2-1.7,35.09,35.09,0,0,0-11.2.2,2.46,2.46,0,0,0-1.7.8,3.9,3.9,0,0,0-.7,1.6c-.3,1.1-.7,2.2-1,3.4-.1.4-.8,2.9-.9,3.3,0,.7.7.7,1.3,1.1"/><path class="cls-8" d="M65.59,19.19c.8-.4,1.8-.9,2.7-1.3a.62.62,0,0,1,.4.6,1,1,0,0,1-.5.6,2.81,2.81,0,0,1-1.5.6c-.2,0-.5,0-.6-.1-.2.1-.6-.3-.5-.4"/><path class="cls-8" d="M70.09,15.19a1.8,1.8,0,0,0-1,.1,5.34,5.34,0,0,0-2.4-2.7,1.72,1.72,0,0,0-1.2-.2c-.1,0-.1,0-.2.1h0c-.4-.2-.9-.3-1.2.1a.91.91,0,0,0,.1,1.1c-.1.2-.1.4-.2.6a4.45,4.45,0,0,0,.1,2.3,3.13,3.13,0,0,0,.5,1v.2a1.61,1.61,0,0,0-.4.7c-.2.4.4.6.7.5,1.3-.6,2.4-1.3,3.7-1.8.6-.2,2-.7,1.9-1.5C70.39,15.39,70.29,15.19,70.09,15.19Zm-5.9-2.6a.75.75,0,0,1,.8-.1,1.78,1.78,0,0,0-.7.8A.63.63,0,0,1,64.19,12.59Z"/></svg>