<svg id="Layer_1" data-name="Layer 1" xmlns="http://www.w3.org/2000/svg" viewBox="0 0 82.6 70"><defs><style>.cls-1{fill:#cacad3;}.cls-2{fill:#ff7800;}.cls-3{fill:#ffc333;}.cls-4{fill:#87eecb;}.cls-5{fill:#62cae8;}.cls-6{fill:#ed6767;}.cls-7{fill:#f4f4f4;}.cls-8{fill:#fff;}.cls-9{fill:#1eaaa0;}</style></defs><title>Artboard 1 copy 3</title><path class="cls-1" d="M55.86,59.89c5.1-.1,10.6,0,15.2-.4s7.4-3.3,4.8-4.5c-1.7-.8-4.3-.9-7.5-1.4-4.5-.7-9.3-.1-13.8-.7a83.77,83.77,0,0,0-10.2-1.1c-1.7,0-4-.8-5.7-.9-4.6-.2-8.3-.3-12.9-.6A42.6,42.6,0,0,0,12,51.39c-2.8.7-4.8,1.7-3.7,2.9.8.9,3.4,1.7,6.2,2.4a158.66,158.66,0,0,0,21.7,3.8c4,.4,8.2.7,12,.7s7.4-.4,8.9-1.2"/><path class="cls-2" d="M17.86,9.29c8.1-.4,20.7-.9,28.7.1A277.69,277.69,0,0,1,44,49.09a1.14,1.14,0,0,1-.3.8,1.42,1.42,0,0,1-.6.2c-7.6.6-15.1,1.2-22.7,1.9a2,2,0,0,1-1.1-.2A1.14,1.14,0,0,1,19,51a153.51,153.51,0,0,1-1.1-41.7"/><path class="cls-3" d="M20.56,13.89c8.4-.4,21.4-.9,29.7.1a233.82,233.82,0,0,1-2.7,36.4.78.78,0,0,1-.3.7,1.45,1.45,0,0,1-.7.2c-7.8.6-15.7,1.1-23.5,1.7a2,2,0,0,1-1.1-.2,1.08,1.08,0,0,1-.3-.7,125.61,125.61,0,0,1-1.1-38.2"/><path class="cls-4" d="M56,24l-2.8-.3a.4.4,0,0,1-.4-.2c-.1-.1,0-.2,0-.4a17.3,17.3,0,0,1,3.8-6.4c.2-.2.5-.5.8-.4s.3.2.5.4c1,1.3,2,2.6,3,4a3.29,3.29,0,0,1,.7,1.3,1.23,1.23,0,0,1-.5,1.3c-.7.4-1.9-.2-2.3.6v.6a26,26,0,0,1-.6,5.6,2.22,2.22,0,0,1-.5,1.1.71.71,0,0,1-1.1-.1,1,1,0,0,1,0-.9,10.76,10.76,0,0,0-.1-5.9"/><path class="cls-5" d="M33.76,39.79a22.85,22.85,0,0,1,0,3.7v.4a1.72,1.72,0,0,1-1.2,1.5,7.45,7.45,0,0,1-6.2-.2c-.5-.2-.9-.5-.8-1.1a2.15,2.15,0,0,1,0-.8,8.55,8.55,0,0,0,0-1.6,5.63,5.63,0,0,0,0-1.3c0-.1-.1-.3,0-.4h.3a5.13,5.13,0,0,0,2.4.7,16.68,16.68,0,0,0,3.2-.2,4.71,4.71,0,0,0,1.6-.4C33.36,40.09,33.46,39.79,33.76,39.79Z"/><path class="cls-6" d="M33.76,39.79c-.2.5-.7.6-1.2.7a19.92,19.92,0,0,1-4.2.4,4.19,4.19,0,0,1-2.7-.9.1.1,0,0,1-.1-.1,4.53,4.53,0,0,1,1.4-3.3c.2-.1.3,0,.4,0a7.85,7.85,0,0,0,4.3,0c.1,0,.3-.1.4,0,.7.3,1,.9,1.4,1.4.2.2.1.5.1.8A4.4,4.4,0,0,1,33.76,39.79Z"/><path class="cls-6" d="M25.56,43.29c0,.2.1.4,0,.6-.2.7.3,1,.8,1.3a7.92,7.92,0,0,0,6.4,0c.5-.2.7-.8,1-1.3a4.08,4.08,0,0,1-.1,1.9,2.52,2.52,0,0,1-1.8,1.8,8,8,0,0,1-4.6.1,2.15,2.15,0,0,1-1.7-2.2A8.09,8.09,0,0,1,25.56,43.29Z"/><path class="cls-7" d="M32.16,36.59a6.7,6.7,0,0,1-5.2,0c-.1,0-.1-.1-.2-.1a1.08,1.08,0,0,1-.7-1.1,22.75,22.75,0,0,1,.2-2.6.1.1,0,0,1,.1.1,2.26,2.26,0,0,0,2.1,1.5,6.08,6.08,0,0,0,4.2-.6c.1,0,.1-.1.2,0a12.05,12.05,0,0,1,0,1.9C33,36.19,32.56,36.39,32.16,36.59Z"/><path class="cls-8" d="M33,33.79a5.15,5.15,0,0,1-3.6.9,3.94,3.94,0,0,1-2.1-.6,1.89,1.89,0,0,1-1-1.3.52.52,0,0,1,.2-.4,3.46,3.46,0,0,1,2-.7,11.38,11.38,0,0,1,3.7.4C33.06,32.59,33.26,32.89,33,33.79Z"/><path class="cls-9" d="M30,40.49a8.21,8.21,0,0,1-3.5-.3c-.1,0-.2-.1-.4-.1s-.3-.2-.3-.4.2-.2.3-.2a10.88,10.88,0,0,1,3.1-.3,14.72,14.72,0,0,0,2.1,0c.6.1,1.1.1,1.7.2.2,0,.4.1.4.3s-.2.3-.4.4A9.48,9.48,0,0,1,30,40.49Z"/><path class="cls-7" d="M30.06,34.09a3.92,3.92,0,0,1-2.4-.6,1,1,0,0,1-.4-.7c0-.3.3-.3.5-.4a5,5,0,0,1,2.4-.3,4,4,0,0,1,1.5.3c.3.1.6.2.6.6s-.2.5-.6.7A12.44,12.44,0,0,1,30.06,34.09Z"/><path class="cls-8" d="M22.86,19.69c5.1.2,10.3.3,15.4.5"/><path class="cls-8" d="M22.86,20.29c5.1.2,10.3.3,15.4.5a.6.6,0,0,0,0-1.2c-5.1-.2-10.3-.3-15.4-.5-.8-.1-.8,1.2,0,1.2Z"/><path class="cls-8" d="M22.56,23.59c3.4.2,6.7.3,10.1.5"/><path class="cls-8" d="M22.56,24.19c3.4.2,6.7.3,10.1.5a.6.6,0,0,0,0-1.2c-3.4-.2-6.7-.3-10.1-.5-.8-.1-.8,1.1,0,1.2Z"/><path class="cls-9" d="M38.46,31.59c.1,6.8.4,13.6.7,20.3a2.92,2.92,0,0,0,.6,2.1,2.3,2.3,0,0,0,1.4.4l23-.3a1.68,1.68,0,0,0,1.2-.3,2.29,2.29,0,0,0,.6-1.5,77.09,77.09,0,0,0,.7-15.2,3.46,3.46,0,0,0-.5-2.1,2.75,2.75,0,0,0-2.4-.8c-3.6.2-7.3.4-10.9.5a3.18,3.18,0,0,1-1.4-.2c-1.6-1-.8-4.7-2.5-5.6a2.54,2.54,0,0,0-1.2-.2l-5.9.3a4,4,0,0,0-2.6.7,2.42,2.42,0,0,0-.5,2.9"/><path class="cls-5" d="M39.36,53.39c2.1-4.3,4.4-8.6,6.9-12.8a4.09,4.09,0,0,1,1.9-2,5.87,5.87,0,0,1,2.3-.4,86.14,86.14,0,0,1,18.3,1,3.77,3.77,0,0,1,1.6.5,2,2,0,0,1,.6,1.2,10.77,10.77,0,0,1-1.5,6.2,39.88,39.88,0,0,1-4,6.4,4.18,4.18,0,0,1-2,1.7,6.48,6.48,0,0,1-2,.2c-6.8-.2-13.6-.3-20.5-.5a1.94,1.94,0,0,1-1.3-.3c-.4-.2-.5-.7-.1-.9"/><path class="cls-8" d="M39.76,53.49c2.1-4.1,4.2-8.2,6.6-12.2a5.75,5.75,0,0,1,2-2.4c1.2-.6,3-.4,4.3-.5,2.6-.1,5.3,0,7.9.1a57,57,0,0,1,8.3.9c1.4.4,1.6.9,1.6,1.9a10.87,10.87,0,0,1-.1,1.8,12.8,12.8,0,0,1-1.1,3.1,33,33,0,0,1-3.4,5.7,6.65,6.65,0,0,1-2.4,2.6c-1.2.6-3.2.3-4.6.3-3.1-.1-6.2-.1-9.2-.2-1.5,0-3.1-.1-4.6-.1a17.7,17.7,0,0,1-2.3-.1c-.2,0-3.9,0-3.1-1.2.3-.4-.6-.4-.8,0-1.1,1.8,1.7,1.9,2.9,1.9l11.6.3c1.8,0,3.5.1,5.3.1,1.5,0,3.4.3,4.8-.1a4.7,4.7,0,0,0,2.2-1.7,30.87,30.87,0,0,0,2.6-3.7,20.71,20.71,0,0,0,3.1-7.2c.3-1.9.2-3.6-2.4-4a73.2,73.2,0,0,0-10.5-1,48.64,48.64,0,0,0-5.4,0,13.52,13.52,0,0,0-4.5.4,3.65,3.65,0,0,0-2.2,1.8,36.23,36.23,0,0,0-2.4,4.3c-1.7,3-3.3,6.1-4.8,9.1-.4.3.4.5.6.1Z"/><path id="Fill-18" class="cls-8" d="M59.66,46.49h-2.8v-2.1a.75.75,0,0,0-1.5,0v2.1h-2.8a.75.75,0,0,0,0,1.5h2.8v2.6a.75.75,0,0,0,1.5,0V48h2.8a.75.75,0,0,0,0-1.5"/></svg>