<?xml version="1.0" encoding="iso-8859-1"?>
<!-- Generator: Adobe Illustrator 19.0.0, SVG Export Plug-In . SVG Version: 6.00 Build 0)  -->
<svg version="1.1" id="Capa_1" xmlns="http://www.w3.org/2000/svg" xmlns:xlink="http://www.w3.org/1999/xlink" x="0px" y="0px"
	 viewBox="0 0 512 512" style="enable-background:new 0 0 512 512;" xml:space="preserve">
<g>
	<rect x="273.655" y="145.655" style="fill:#A4C2F7;" width="229.517" height="353.103"/>
	<rect x="8.828" y="145.655" style="fill:#FFFFFF;" width="229.517" height="353.103"/>
	
		<linearGradient id="SVGID_1_" gradientUnits="userSpaceOnUse" x1="-48.839" y1="652.6688" x2="-47.939" y2="651.5438" gradientTransform="matrix(441.3793 0 0 -353.1035 21613.8965 230583.2031)">
		<stop  offset="0" style="stop-color:#D4E1F4"/>
		<stop  offset="0.1717" style="stop-color:#D4E1F4"/>
		<stop  offset="0.2" style="stop-color:#D4E1F4"/>
		<stop  offset="0.2001" style="stop-color:#DAE4F4"/>
		<stop  offset="0.2007" style="stop-color:#EBEBF4"/>
		<stop  offset="0.2014" style="stop-color:#F6F1F4"/>
		<stop  offset="0.2023" style="stop-color:#FDF4F4"/>
		<stop  offset="0.205" style="stop-color:#FFF5F4"/>
		<stop  offset="0.2522" style="stop-color:#FFF5F4"/>
		<stop  offset="0.26" style="stop-color:#FFF5F4"/>
		<stop  offset="0.26" style="stop-color:#D4E1F4"/>
		<stop  offset="0.3974" style="stop-color:#D4E1F4"/>
		<stop  offset="0.42" style="stop-color:#D4E1F4"/>
		<stop  offset="0.4201" style="stop-color:#DAE4F4"/>
		<stop  offset="0.4207" style="stop-color:#EBEBF4"/>
		<stop  offset="0.4214" style="stop-color:#F6F1F4"/>
		<stop  offset="0.4223" style="stop-color:#FDF4F4"/>
		<stop  offset="0.425" style="stop-color:#FFF5F4"/>
		<stop  offset="0.4894" style="stop-color:#FFF5F4"/>
		<stop  offset="0.5" style="stop-color:#FFF5F4"/>
		<stop  offset="0.5" style="stop-color:#F9F2F4"/>
		<stop  offset="0.5001" style="stop-color:#E8EBF4"/>
		<stop  offset="0.5003" style="stop-color:#DDE5F4"/>
		<stop  offset="0.5005" style="stop-color:#D6E2F4"/>
		<stop  offset="0.501" style="stop-color:#D4E1F4"/>
		<stop  offset="0.7062" style="stop-color:#D4E1F4"/>
		<stop  offset="0.74" style="stop-color:#D4E1F4"/>
		<stop  offset="0.741" style="stop-color:#FFF5F4"/>
		<stop  offset="0.8346" style="stop-color:#FFF5F4"/>
		<stop  offset="0.85" style="stop-color:#FFF5F4"/>
		<stop  offset="0.851" style="stop-color:#D4E1F4"/>
	</linearGradient>
	<rect x="35.31" y="145.655" style="fill:url(#SVGID_1_);" width="441.379" height="353.103"/>
	<rect x="273.655" y="48.552" style="fill:#7FACFA;" width="229.517" height="97.103"/>
	<rect x="8.828" y="48.552" style="fill:#FFFFFF;" width="229.517" height="97.103"/>
	<rect x="35.31" y="48.552" style="fill:#A4C2F7;" width="441.379" height="97.103"/>
	<g>
		<path style="fill:#428DFF;" d="M167.724,57.379h-26.483c-4.875,0-8.828-3.952-8.828-8.828s3.952-8.828,8.828-8.828h26.483
			c4.875,0,8.828,3.952,8.828,8.828S172.599,57.379,167.724,57.379z"/>
		<path style="fill:#428DFF;" d="M176.552,92.69c-4.875,0-8.828-3.952-8.828-8.828s3.952-8.828,8.828-8.828
			c14.626,0,26.483-11.857,26.483-26.483s-11.857-26.483-26.483-26.483s-26.483,11.857-26.483,26.483
			c0,4.875-3.952,8.828-8.828,8.828s-8.828-3.952-8.828-8.828c0-24.377,19.761-44.138,44.138-44.138s44.138,19.761,44.138,44.138
			S200.928,92.69,176.552,92.69z"/>
		<path style="fill:#428DFF;" d="M229.517,92.69c-4.875,0-8.828-3.952-8.828-8.828s3.952-8.828,8.828-8.828
			c14.626,0,26.483-11.857,26.483-26.483s-11.857-26.483-26.483-26.483c-4.875,0-8.828-3.952-8.828-8.828s3.952-8.828,8.828-8.828
			c24.377,0,44.138,19.761,44.138,44.138S253.894,92.69,229.517,92.69z"/>
		<path style="fill:#428DFF;" d="M282.483,92.69c-4.875,0-8.828-3.952-8.828-8.828s3.952-8.828,8.828-8.828
			c14.626,0,26.483-11.857,26.483-26.483s-11.857-26.483-26.483-26.483c-4.875,0-8.828-3.952-8.828-8.828s3.952-8.828,8.828-8.828
			c24.377,0,44.138,19.761,44.138,44.138S306.859,92.69,282.483,92.69z"/>
		<path style="fill:#428DFF;" d="M335.448,92.69c-4.875,0-8.828-3.952-8.828-8.828s3.952-8.828,8.828-8.828
			c14.626,0,26.483-11.857,26.483-26.483s-11.857-26.483-26.483-26.483c-4.875,0-8.828-3.952-8.828-8.828s3.952-8.828,8.828-8.828
			c24.377,0,44.138,19.761,44.138,44.138S359.825,92.69,335.448,92.69z"/>
		<path style="fill:#428DFF;" d="M503.172,163.31H8.828c-2.342,0.001-4.588-0.928-6.244-2.584s-2.585-3.902-2.584-6.244V48.552
			c-0.001-2.342,0.928-4.588,2.584-6.244c1.656-1.656,3.902-2.585,6.244-2.584h132.414c4.875,0,8.828,3.952,8.828,8.828
			s-3.952,8.828-8.828,8.828H17.655v88.276h476.69V57.379H370.759c-4.875,0-8.828-3.952-8.828-8.828s3.952-8.828,8.828-8.828
			h132.414c2.342-0.001,4.588,0.928,6.244,2.584c1.656,1.656,2.585,3.902,2.584,6.244v105.931c0.001,2.342-0.928,4.588-2.584,6.244
			C507.76,162.382,505.514,163.312,503.172,163.31L503.172,163.31z"/>
		<path style="fill:#428DFF;" d="M503.172,507.586H8.828c-2.342,0.001-4.588-0.928-6.244-2.584C0.928,503.346-0.001,501.1,0,498.759
			V48.552c-0.001-2.342,0.928-4.588,2.584-6.244c1.656-1.656,3.902-2.585,6.244-2.584h132.414c4.875,0,8.828,3.952,8.828,8.828
			s-3.952,8.828-8.828,8.828H17.655v432.552h476.69V57.379H370.759c-4.875,0-8.828-3.952-8.828-8.828s3.952-8.828,8.828-8.828
			h132.414c2.342-0.001,4.588,0.928,6.244,2.584c1.656,1.656,2.585,3.902,2.584,6.244v450.207c0.001,2.342-0.928,4.588-2.584,6.244
			C507.76,506.658,505.514,507.588,503.172,507.586z"/>
		<path style="fill:#428DFF;" d="M167.724,454.621c-2.342,0.001-4.588-0.928-6.244-2.584c-1.656-1.656-2.585-3.902-2.584-6.244
			V216.276c0-4.875,3.952-8.828,8.828-8.828s8.828,3.952,8.828,8.828v229.517c0.001,2.342-0.928,4.588-2.584,6.244
			C172.312,453.692,170.066,454.622,167.724,454.621L167.724,454.621z"/>
		<path style="fill:#428DFF;" d="M203.034,454.621h-70.621c-4.875,0-8.828-3.952-8.828-8.828s3.952-8.828,8.828-8.828h70.621
			c4.875,0,8.828,3.952,8.828,8.828S207.91,454.621,203.034,454.621z"/>
		<path style="fill:#428DFF;" d="M114.759,278.069c-3.57-0.001-6.788-2.152-8.154-5.45c-1.366-3.298-0.611-7.094,1.913-9.619
			l52.966-52.966c3.456-3.394,9.001-3.369,12.426,0.056c3.425,3.425,3.45,8.97,0.056,12.426L121,275.482
			C119.346,277.141,117.1,278.072,114.759,278.069L114.759,278.069z"/>
		<path style="fill:#428DFF;" d="M335.448,331.034c-24.993,0-47.525-15.055-57.089-38.146s-4.278-49.669,13.395-67.342
			c17.673-17.673,44.251-22.959,67.342-13.395c23.091,9.564,38.146,32.096,38.146,57.089
			C397.2,303.352,369.559,330.993,335.448,331.034z M335.448,225.103c-24.377,0-44.138,19.761-44.138,44.138
			s19.761,44.138,44.138,44.138s44.138-19.761,44.138-44.138C379.558,244.877,359.813,225.132,335.448,225.103L335.448,225.103z"/>
		<path style="fill:#428DFF;" d="M335.448,454.621c-39.003,0-70.621-31.618-70.621-70.621s31.618-70.621,70.621-70.621
			s70.621,31.618,70.621,70.621C406.024,422.984,374.433,454.576,335.448,454.621L335.448,454.621z M335.448,331.034
			c-29.252,0-52.966,23.713-52.966,52.966s23.713,52.966,52.966,52.966s52.966-23.713,52.966-52.966
			C388.382,354.761,364.687,331.066,335.448,331.034z"/>
	</g>
</g>
<g>
</g>
<g>
</g>
<g>
</g>
<g>
</g>
<g>
</g>
<g>
</g>
<g>
</g>
<g>
</g>
<g>
</g>
<g>
</g>
<g>
</g>
<g>
</g>
<g>
</g>
<g>
</g>
<g>
</g>
</svg>
